<svg xmlns="http://www.w3.org/2000/svg" xmlns:xlink="http://www.w3.org/1999/xlink" width="256" zoomAndPan="magnify" viewBox="0 0 192 30.000001" height="40" preserveAspectRatio="xMidYMid meet" version="1.0"><defs><g/><clipPath id="74de42be55"><path d="M 8.089844 5.445312 L 26.234375 5.445312 L 26.234375 23.589844 L 8.089844 23.589844 Z M 8.089844 5.445312 " clip-rule="nonzero"/></clipPath><clipPath id="6859a2e362"><path d="M 20 11 L 24.441406 11 L 24.441406 19 L 20 19 Z M 20 11 " clip-rule="nonzero"/></clipPath><clipPath id="1c0fef038b"><path d="M 15 9.453125 L 20 9.453125 L 20 19.613281 L 15 19.613281 Z M 15 9.453125 " clip-rule="nonzero"/></clipPath></defs><g fill="#7e75ea" fill-opacity="1"><g transform="translate(29.874355, 20.608931)"><g><path d="M 7.578125 0.0742188 C 10.457031 0.0742188 12.105469 -1.648438 12.621094 -2.78125 C 12.648438 -2.878906 12.671875 -3.027344 12.574219 -3.050781 L 11.367188 -3.273438 C 11.246094 -3.320312 11.195312 -3.320312 11.097656 -3.199219 C 10.726562 -2.558594 9.667969 -1.328125 7.601562 -1.328125 C 4.675781 -1.328125 3 -3.789062 3 -6.496094 C 3 -9.203125 4.675781 -11.636719 7.601562 -11.636719 C 9.667969 -11.636719 10.726562 -10.457031 11.097656 -9.769531 C 11.144531 -9.695312 11.246094 -9.644531 11.367188 -9.695312 L 12.574219 -9.890625 C 12.671875 -9.941406 12.648438 -10.089844 12.621094 -10.1875 C 12.105469 -11.34375 10.457031 -13.039062 7.578125 -13.039062 C 3.886719 -13.039062 1.328125 -10.113281 1.328125 -6.496094 C 1.328125 -2.855469 3.886719 0.0742188 7.578125 0.0742188 Z M 7.578125 0.0742188 "/></g></g></g><g fill="#7e75ea" fill-opacity="1"><g transform="translate(43.452514, 20.608931)"><g><path d="M 6.765625 0.0742188 C 8.859375 0.0742188 10.703125 -1.132812 11.464844 -2.089844 C 11.5625 -2.238281 11.6875 -2.191406 11.6875 -2.019531 L 11.6875 -0.195312 C 11.6875 -0.0742188 11.761719 0 11.882812 0 L 13.140625 0 C 13.261719 0 13.335938 -0.0742188 13.335938 -0.195312 L 13.335938 -12.769531 C 13.335938 -12.894531 13.261719 -12.964844 13.140625 -12.964844 L 11.882812 -12.964844 C 11.761719 -12.964844 11.6875 -12.894531 11.6875 -12.769531 L 11.6875 -4.304688 C 11 -2.535156 9.054688 -1.328125 7.210938 -1.328125 C 4.773438 -1.328125 3.320312 -2.753906 3.320312 -6.125 L 3.320312 -12.769531 C 3.320312 -12.894531 3.246094 -12.964844 3.125 -12.964844 L 1.84375 -12.964844 C 1.722656 -12.964844 1.648438 -12.894531 1.648438 -12.769531 L 1.648438 -5.878906 C 1.648438 -1.28125 4.058594 0.0742188 6.765625 0.0742188 Z M 6.765625 0.0742188 "/></g></g></g><g fill="#7e75ea" fill-opacity="1"><g transform="translate(57.817814, 20.608931)"><g><path d="M 7.949219 0.0742188 C 11.910156 0.0742188 14.589844 -2.878906 14.589844 -6.496094 C 14.589844 -10.113281 11.910156 -13.039062 7.949219 -13.039062 C 3.984375 -13.039062 1.328125 -10.113281 1.328125 -6.496094 C 1.328125 -2.878906 3.984375 0.0742188 7.949219 0.0742188 Z M 7.949219 -1.328125 C 4.847656 -1.328125 3 -3.691406 3 -6.496094 C 3 -9.324219 4.847656 -11.636719 7.949219 -11.636719 C 11.046875 -11.636719 12.941406 -9.324219 12.941406 -6.496094 C 12.941406 -3.691406 11.046875 -1.328125 7.949219 -1.328125 Z M 7.949219 -1.328125 "/></g></g></g><g fill="#7e75ea" fill-opacity="1"><g transform="translate(73.240824, 20.608931)"><g><path d="M 1.773438 0 L 3.050781 0 C 3.175781 0 3.246094 -0.0742188 3.246094 -0.195312 L 3.246094 -8.660156 C 3.914062 -10.433594 5.878906 -11.636719 7.726562 -11.636719 C 10.160156 -11.636719 11.613281 -10.210938 11.613281 -6.839844 L 11.613281 -0.195312 C 11.613281 -0.0742188 11.6875 0 11.808594 0 L 13.066406 0 C 13.1875 0 13.261719 -0.0742188 13.261719 -0.195312 L 13.261719 -7.085938 C 13.261719 -11.6875 10.851562 -13.039062 8.144531 -13.039062 C 6.078125 -13.039062 4.230469 -11.835938 3.46875 -10.875 C 3.347656 -10.726562 3.246094 -10.777344 3.246094 -10.949219 L 3.246094 -12.769531 C 3.246094 -12.894531 3.175781 -12.964844 3.050781 -12.964844 L 1.773438 -12.964844 C 1.648438 -12.964844 1.574219 -12.894531 1.574219 -12.769531 L 1.574219 -0.195312 C 1.574219 -0.0742188 1.648438 0 1.773438 0 Z M 1.773438 0 "/></g></g></g><g fill="#7e75ea" fill-opacity="1"><g transform="translate(87.606124, 20.608931)"><g><path d="M 7.554688 5.167969 C 11.046875 5.167969 12.894531 2.78125 12.894531 -0.859375 L 12.894531 -12.769531 C 12.894531 -12.894531 12.820312 -12.964844 12.695312 -12.964844 L 11.441406 -12.964844 C 11.316406 -12.964844 11.246094 -12.894531 11.246094 -12.769531 L 11.246094 -11.171875 C 11.246094 -11 11.121094 -10.949219 11.023438 -11.097656 C 10.335938 -12.054688 8.808594 -13.039062 6.9375 -13.039062 C 3.050781 -13.039062 1.230469 -9.769531 1.230469 -6.496094 C 1.230469 -3.222656 3.050781 0.0742188 6.9375 0.0742188 C 8.808594 0.0742188 10.335938 -0.910156 11.023438 -1.871094 C 11.121094 -2.019531 11.246094 -1.96875 11.246094 -1.820312 L 11.246094 -0.859375 C 11.246094 2.484375 9.570312 3.765625 7.210938 3.765625 C 5.167969 3.765625 3.8125 3.027344 3.175781 2.65625 C 3.074219 2.582031 2.953125 2.65625 2.902344 2.753906 L 2.707031 3.566406 C 2.65625 3.667969 2.65625 3.765625 2.753906 3.8125 C 3.566406 4.332031 5.242188 5.167969 7.554688 5.167969 Z M 7.332031 -1.328125 C 4.402344 -1.328125 2.902344 -3.667969 2.902344 -6.496094 C 2.902344 -9.324219 4.402344 -11.636719 7.332031 -11.636719 C 8.882812 -11.636719 10.433594 -10.777344 11.246094 -9.226562 L 11.246094 -3.738281 C 10.433594 -2.191406 8.882812 -1.328125 7.332031 -1.328125 Z M 7.332031 -1.328125 "/></g></g></g><g fill="#7e75ea" fill-opacity="1"><g transform="translate(101.651646, 20.608931)"><g/></g></g><g fill="#7e75ea" fill-opacity="1"><g transform="translate(111.244903, 20.608931)"><g><path d="M 1.773438 0 L 3.050781 0 C 3.175781 0 3.246094 -0.0742188 3.246094 -0.195312 L 3.246094 -18.332031 C 3.246094 -18.453125 3.175781 -18.527344 3.050781 -18.527344 L 1.773438 -18.527344 C 1.648438 -18.527344 1.574219 -18.453125 1.574219 -18.332031 L 1.574219 -0.195312 C 1.574219 -0.0742188 1.648438 0 1.773438 0 Z M 1.773438 0 "/></g></g></g><g fill="#7e75ea" fill-opacity="1"><g transform="translate(115.57417, 20.608931)"><g><path d="M 7.578125 0.0742188 C 10.582031 0.0742188 12.351562 -1.527344 13.113281 -3.347656 C 13.164062 -3.46875 13.113281 -3.542969 12.964844 -3.566406 L 11.761719 -3.738281 C 11.664062 -3.765625 11.5625 -3.714844 11.515625 -3.617188 C 11.246094 -3.125 10.359375 -1.328125 7.554688 -1.328125 C 4.257812 -1.328125 3.074219 -4.378906 3.074219 -5.683594 C 3.074219 -5.832031 3.148438 -5.878906 3.273438 -5.878906 L 13.164062 -5.878906 C 13.285156 -5.878906 13.359375 -5.953125 13.359375 -6.078125 L 13.359375 -6.570312 C 13.359375 -9.523438 11.808594 -13.039062 7.457031 -13.039062 C 3.714844 -13.039062 1.328125 -10.113281 1.328125 -6.496094 C 1.328125 -2.855469 3.667969 0.0742188 7.578125 0.0742188 Z M 3.273438 -7.160156 C 3.175781 -7.160156 3.101562 -7.234375 3.101562 -7.355469 C 3.101562 -9.128906 4.402344 -11.6875 7.457031 -11.710938 C 10.753906 -11.710938 11.613281 -8.882812 11.613281 -7.332031 C 11.613281 -7.234375 11.539062 -7.160156 11.417969 -7.160156 Z M 3.273438 -7.160156 "/></g></g></g><g clip-path="url(#74de42be55)"><path fill="#7e75ea" d="M 8.089844 5.445312 L 26.234375 5.445312 L 26.234375 23.589844 L 8.089844 23.589844 Z M 8.089844 5.445312 " fill-opacity="1" fill-rule="nonzero"/></g><path fill="#ffffff" d="M 13.589844 18.152344 C 13.375 18.152344 13.234375 18.082031 13.089844 17.9375 L 10.238281 15.085938 C 9.953125 14.800781 9.953125 14.371094 10.238281 14.085938 L 13.089844 11.234375 C 13.375 10.949219 13.804688 10.949219 14.089844 11.234375 C 14.375 11.519531 14.375 11.949219 14.089844 12.234375 L 11.734375 14.585938 L 14.089844 16.941406 C 14.375 17.226562 14.375 17.652344 14.089844 17.9375 C 13.945312 18.082031 13.804688 18.152344 13.589844 18.152344 Z M 13.589844 18.152344 " fill-opacity="1" fill-rule="nonzero"/><g clip-path="url(#6859a2e362)"><path fill="#ffffff" d="M 20.722656 18.152344 C 20.507812 18.152344 20.367188 18.082031 20.222656 17.9375 C 19.9375 17.652344 19.9375 17.226562 20.222656 16.941406 L 22.578125 14.585938 L 20.222656 12.234375 C 19.9375 11.949219 19.9375 11.519531 20.222656 11.234375 C 20.507812 10.949219 20.9375 10.949219 21.222656 11.234375 L 24.074219 14.085938 C 24.359375 14.371094 24.359375 14.800781 24.074219 15.085938 L 21.222656 17.9375 C 21.078125 18.082031 20.9375 18.152344 20.722656 18.152344 Z M 20.722656 18.152344 " fill-opacity="1" fill-rule="nonzero"/></g><g clip-path="url(#1c0fef038b)"><path fill="#ffffff" d="M 15.730469 19.578125 C 15.660156 19.578125 15.585938 19.578125 15.515625 19.507812 C 15.160156 19.363281 14.945312 19.007812 15.089844 18.582031 L 17.941406 10.023438 C 18.082031 9.664062 18.441406 9.453125 18.867188 9.59375 C 19.222656 9.738281 19.4375 10.09375 19.296875 10.523438 L 16.441406 19.078125 C 16.300781 19.363281 16.015625 19.578125 15.730469 19.578125 Z M 15.730469 19.578125 " fill-opacity="1" fill-rule="nonzero"/></g></svg>